# xmcd CD database file
#
# Track frame offsets:
#	150
#	19537
#	43790
#	97000
#	116066
#	133299
#	142222
#	158889
#	190352
#	221112
#	241634
#	258990
#
# Disc length: 3741 seconds
#
# Revision: 0
# Processed by: cddbd v1.5.2PL0 Copyright (c) Steve Scherf et al.
# Submitted via: CDex 1.51
#
DISCID=b40e9b0c
DTITLE=Furay, Richie - Richie Furay Band Alive-Deluxe Edition Disc 1
DYEAR=2009
DGENRE=Country-Folk
TTITLE0=01 When It All Began
TTITLE1=02 Pickin' Up The Pieces
TTITLE2=03 Medley #1-Flying On The Ground Is Wrong/Do I Have To Come Right Out And Say It/Nowadays Clancy Can't Even Sing 
TTITLE3=04 Forever With You
TTITLE4=05 Go And Say Goodbye
TTITLE5=06 Child's Claim To Fame
TTITLE6=07 So Far To Go
TTITLE7=08 Satisfied
TTITLE8=09 Through It All
TTITLE9=10 Kind Woman
TTITLE10=11 Just For Me And You
TTITLE11=12 A Good Feelin' To Know
EXTD=YEAR: 2009
EXTT0=
EXTT1=
EXTT2=
EXTT3=
EXTT4=
EXTT5=
EXTT6=
EXTT7=
EXTT8=
EXTT9=
EXTT10=
EXTT11=
PLAYORDER=
